# xmcd CD database file generated by Grip 2.96
# 
# Track frame offsets:
#       200
#       14585
#       34720
#       54525
#       77642
#       98247
#       122545
#       139125
#       159297
#       173422
#       191070
#       227997
#       246487
# 
# Disc length: 3466 seconds
# 
# Revision: 0
# Processed by: cddbd v1.4PL0 Copyright (c) Steve Scherf et al.
# Submitted via: Grip 2.96
# 
DISCID=a60d880d
DTITLE=Sax Gordon - Have Horn Will Travel
DYEAR=1900
DGENRE=
TTITLE0=Have Horn Will Travel
TTITLE1=For Whom the Horn Honks
TTITLE2=Melancholy Serenade
TTITLE3=DD Rider
TTITLE4=You Said She Wouldn't
TTITLE5=Waterbed Lou
TTITLE6=Hubcap Pete
TTITLE7=The Last Mile
TTITLE8=Squashy
TTITLE9=But Officer
TTITLE10=Heavy Soul
TTITLE11=Hallelujah
TTITLE12=Deep River
EXTD=
EXTT0=
EXTT1=
EXTT2=
EXTT3=
EXTT4=
EXTT5=
EXTT6=
EXTT7=
EXTT8=
EXTT9=
EXTT10=
EXTT11=
EXTT12=
PLAYORDER=
